<svg xmlns="http://www.w3.org/2000/svg" version="1.0" width="300.000000pt" height="343.000000pt" viewBox="0 0 300.000000 343.000000" preserveAspectRatio="xMidYMid meet">
<metadata fill="#ffffff">
Created by potrace 1.10, written by Peter Selinger 2001-2011
</metadata>
<g transform="translate(0.000000,343.000000) scale(0.100000,-0.100000)" fill="#ffffff" stroke="none">
<path d="M747 3423 c414 -2 1092 -2 1505 0 414 1 76 2 -752 2 -828 0 -1166 -1 -753 -2z" fill="#ffffff"/>
<path d="M1410 3301 c-131 -43 -256 -164 -355 -343 -20 -37 -41 -70 -45 -73 -5 -3 -33 1 -63 10 -156 45 -392 59 -515 30 -113 -27 -209 -88 -257 -166 -51 -79 -69 -214 -44 -327 10 -47 9 -51 -15 -75 -54 -54 -52 -144 5 -191 30 -26 89 -43 108 -32 6 4 18 -8 27 -26 9 -18 30 -53 47 -77 l30 -45 -1 -152 -2 -153 -33 -53 c-143 -223 -207 -469 -163 -622 35 -121 110 -197 240 -245 117 -43 331 -44 510 -2 107 26 131 15 186 -83 191 -345 473 -417 709 -183 59 59 136 162 161 217 6 15 29 32 55 43 42 18 48 18 117 2 173 -38 379 -36 495 5 148 52 245 170 254 310 2 35 10 52 35 77 18 18 34 47 38 67 12 61 -30 129 -88 144 -21 6 -33 23 -61 85 -18 43 -52 110 -75 149 l-42 70 6 92 c4 50 2 125 -3 166 l-9 75 44 75 c110 190 156 330 157 475 0 126 -25 190 -107 271 -66 65 -128 96 -236 116 -81 15 -317 3 -424 -21 -50 -12 -96 -21 -103 -21 -7 0 -27 28 -44 63 -72 142 -186 270 -289 322 -45 24 -70 29 -140 31 -47 2 -96 0 -110 -5z m235 -55 c94 -46 176 -136 275 -300 22 -36 22 -39 4 -31 -42 18 -179 55 -237 65 -94 15 -303 12 -396 -5 -45 -9 -113 -27 -151 -39 -39 -13 -70 -21 -70 -18 0 19 108 172 158 224 96 101 178 140 287 135 53 -2 84 -9 130 -31z m-15 -316 c135 -17 344 -80 264 -80 -23 0 -229 -82 -321 -128 l-80 -41 -99 48 c-54 27 -145 66 -202 87 -56 21 -99 41 -95 45 12 12 196 59 266 68 91 12 172 12 267 1z m-772 -45 c92 -19 109 -28 72 -40 -37 -12 -175 -116 -248 -188 -158 -155 -258 -328 -316 -547 l-23 -84 -35 59 -35 60 28 32 c15 18 31 48 34 66 14 74 -49 147 -126 147 l-37 0 -12 83 c-31 220 73 375 284 423 82 18 294 13 414 -11z m1680 10 c127 -30 207 -87 253 -180 70 -143 46 -312 -79 -560 l-56 -109 -8 34 c-49 201 -147 387 -283 538 -63 69 -192 173 -269 213 l-61 33 30 8 c148 38 364 49 473 23z m-1352 -111 c135 -53 264 -114 264 -124 0 -4 -14 -13 -32 -21 -83 -34 -424 -265 -505 -342 -40 -37 -40 -34 -13 99 28 136 65 269 101 364 36 93 16 90 185 24z m832 -74 c37 -108 117 -450 105 -450 -3 0 -37 26 -76 58 -108 88 -259 192 -387 267 -63 38 -119 71 -123 75 -16 14 386 182 423 177 10 -1 30 -47 58 -127z m-1053 42 c-34 -83 -84 -278 -105 -403 -17 -105 -17 -107 -61 -145 -62 -53 -247 -240 -295 -296 l-41 -47 -36 49 -37 49 15 73 c23 111 53 193 106 298 61 119 126 205 226 301 68 65 224 179 244 179 4 0 -3 -26 -16 -58z m1195 -30 c213 -151 380 -410 435 -674 l15 -68 -46 -59 -46 -60 -48 57 c-26 31 -106 114 -179 185 l-132 127 -15 98 c-18 121 -55 274 -89 372 -44 125 -44 117 1 91 21 -13 68 -44 104 -69z m-523 -161 c152 -91 260 -165 394 -272 114 -91 106 -70 115 -344 8 -230 -9 -470 -34 -498 -75 -83 -573 -417 -621 -417 -17 0 -182 97 -306 180 -143 96 -308 227 -319 253 -11 28 -14 587 -3 687 l8 75 95 75 c164 129 485 337 525 339 8 1 74 -34 146 -78z m-1366 -237 c31 -32 34 -74 7 -114 -58 -87 -194 -13 -154 84 22 54 39 65 87 56 22 -4 50 -16 60 -26z m557 -204 c-12 -79 -15 -454 -5 -565 l8 -80 -171 173 c-93 95 -170 180 -170 188 0 14 337 361 344 353 2 -2 -1 -33 -6 -69z m1511 -115 l162 -166 -43 -52 c-49 -59 -289 -300 -294 -294 -2 1 1 43 6 92 11 106 12 422 1 518 -4 37 -4 67 0 67 3 0 79 -74 168 -165z m281 -171 c0 -52 -3 -93 -8 -90 -4 2 -22 24 -39 48 l-31 44 35 47 c19 26 37 47 39 47 2 0 4 -43 4 -96z m-2202 36 c12 -16 22 -32 22 -35 0 -9 -43 -65 -49 -65 -3 0 -6 29 -7 65 0 36 2 65 6 65 3 0 16 -13 28 -30z m268 -296 l153 -150 16 -100 c21 -131 69 -319 105 -413 16 -41 27 -77 25 -80 -3 -2 -49 25 -103 62 -107 72 -233 196 -299 292 -89 132 -157 300 -183 451 l-11 71 37 51 38 51 34 -42 c19 -23 103 -110 188 -193z m1884 166 c38 -51 41 -59 35 -99 -21 -143 -91 -316 -182 -453 -61 -93 -198 -230 -288 -289 -86 -56 -145 -92 -145 -87 0 2 13 35 29 73 51 127 108 346 127 492 6 51 9 54 188 236 99 102 184 184 188 183 4 0 26 -26 48 -56z m-2220 -134 c0 -94 111 -352 207 -482 75 -99 222 -238 301 -284 34 -19 62 -38 62 -41 0 -12 -214 -39 -311 -39 -179 0 -291 40 -372 130 -92 102 -107 248 -45 440 23 73 136 300 149 300 5 0 9 -11 9 -24z m2369 -103 c68 -137 68 -139 32 -158 -63 -32 -82 -129 -36 -184 27 -32 87 -57 106 -45 24 14 1 -99 -33 -166 -39 -76 -102 -129 -193 -161 -85 -30 -275 -37 -410 -15 -54 9 -100 18 -102 19 -1 2 34 27 78 56 151 100 302 270 385 434 39 76 104 262 104 296 0 42 21 19 69 -76z m-1754 -175 c100 -79 244 -177 377 -256 l116 -69 -106 -48 c-108 -49 -303 -125 -320 -125 -20 0 -94 239 -132 425 -11 55 -22 111 -26 124 -4 19 -2 22 8 14 7 -5 45 -35 83 -65z m1151 50 c-3 -13 -14 -70 -26 -128 -35 -175 -114 -420 -135 -420 -20 0 -233 82 -330 128 l-99 48 69 39 c147 81 478 310 500 345 11 19 25 10 21 -12z m744 -77 c28 -23 34 -34 33 -65 -2 -71 -59 -104 -122 -71 -50 26 -57 92 -14 137 34 35 60 35 103 -1z m-1272 -360 c53 -26 149 -67 212 -91 63 -23 124 -46 135 -50 15 -5 -2 -14 -75 -38 -52 -17 -124 -36 -160 -43 -93 -18 -328 -16 -420 5 -83 18 -230 66 -230 75 0 3 28 14 61 24 71 21 293 115 341 145 18 11 34 21 36 21 1 1 46 -21 100 -48z m-373 -257 c163 -45 398 -47 566 -4 46 12 92 26 102 32 10 5 21 8 23 6 2 -3 -21 -41 -52 -86 -68 -99 -144 -171 -222 -209 -49 -24 -69 -28 -142 -28 -70 0 -94 4 -134 24 -84 42 -212 176 -266 280 -12 23 -11 24 11 17 13 -4 65 -19 114 -32z" fill="#ffffff"/>
<path d="M1163 2101 c-70 -24 -113 -59 -145 -117 -57 -105 -43 -220 36 -298 70 -71 166 -91 299 -64 56 12 60 15 83 60 35 69 30 74 -23 19 -56 -57 -108 -77 -176 -67 -145 22 -224 210 -149 356 37 74 91 103 179 98 72 -5 107 -25 138 -81 11 -20 23 -37 28 -37 4 0 7 26 7 58 l0 59 -87 16 c-108 21 -125 21 -190 -2z" fill="#ffffff"/>
<path d="M1500 2102 c0 -6 15 -13 34 -16 19 -4 37 -14 40 -22 8 -20 8 -388 0 -408 -3 -8 -21 -18 -40 -22 -76 -14 -25 -22 129 -19 173 2 206 10 274 61 71 54 111 175 84 257 -22 64 -68 117 -129 145 -53 24 -69 27 -224 30 -101 2 -168 -1 -168 -6z m312 -22 c90 -25 142 -105 142 -220 1 -89 -25 -144 -85 -186 -45 -31 -155 -53 -196 -38 l-28 9 -3 223 -2 222 67 0 c38 0 85 -5 105 -10z" fill="#ffffff"/>
<path d="M154 696 c-42 -42 -47 -93 -12 -126 25 -23 68 -27 68 -5 0 8 -6 12 -14 9 -27 -10 -56 15 -56 47 0 36 47 89 79 89 23 0 51 -25 51 -46 0 -8 7 -14 15 -14 18 0 10 26 -18 58 -31 33 -72 29 -113 -12z" fill="#ffffff"/>
<path d="M2771 694 l-31 -26 20 -26 c12 -15 34 -44 50 -65 17 -23 31 -33 35 -27 4 6 -3 22 -15 35 -38 40 -6 59 50 30 19 -10 31 -11 35 -5 4 6 -7 15 -24 21 -25 9 -31 17 -31 40 0 18 -7 32 -19 39 -28 15 -36 13 -70 -16z m66 -10 c3 -9 -3 -24 -15 -37 -17 -17 -23 -18 -36 -7 -21 16 -20 30 2 46 23 18 41 17 49 -2z" fill="#ffffff"/>
<path d="M2672 619 l-41 -30 46 -63 46 -64 43 31 c24 17 41 34 38 39 -3 5 -21 -3 -41 -18 -33 -25 -35 -25 -48 -8 -20 26 -19 31 11 47 18 10 23 16 15 22 -7 4 -20 0 -30 -9 -23 -21 -28 -20 -41 4 -9 16 -5 23 26 43 19 14 31 27 26 31 -5 3 -27 -8 -50 -25z" fill="#ffffff"/>
<path d="M271 567 c-35 -28 -58 -53 -52 -55 6 -2 18 2 27 9 12 10 20 9 39 -1 19 -10 23 -18 18 -41 -3 -16 -2 -29 3 -29 8 0 24 45 51 141 10 34 -25 25 -86 -24z m56 -11 c-11 -34 -14 -35 -32 -22 -18 13 -18 14 11 39 16 14 30 24 32 23 1 -2 -4 -19 -11 -40z" fill="#ffffff"/>
<path d="M2565 549 c-22 -16 -39 -33 -38 -38 2 -8 58 -104 69 -120 5 -6 94 50 94 59 0 14 -5 13 -47 -15 l-37 -26 -12 23 c-11 19 -10 25 3 35 9 7 21 14 27 16 6 2 8 8 4 12 -4 4 -19 0 -32 -9 -24 -15 -26 -15 -37 6 -10 18 -8 24 12 39 13 10 30 19 37 19 13 0 17 16 5 23 -5 2 -26 -9 -48 -24z" fill="#ffffff"/>
<path d="M400 564 c0 -3 9 -13 19 -22 19 -17 19 -18 -19 -74 -24 -35 -34 -58 -27 -61 7 -2 27 21 46 52 42 71 38 67 60 47 16 -15 19 -15 24 -1 4 8 2 15 -4 15 -5 0 -27 11 -49 25 -41 26 -50 29 -50 19z" fill="#ffffff"/>
<path d="M495 430 c-32 -33 -56 -63 -52 -66 4 -4 16 1 27 11 18 16 23 17 46 5 19 -11 24 -19 20 -36 -4 -13 -2 -25 3 -29 6 -3 13 11 17 32 3 21 10 56 15 78 6 28 4 44 -4 52 -10 10 -25 1 -72 -47z m58 -2 c-7 -41 -7 -41 -33 -33 -22 7 -22 7 6 36 15 16 29 29 31 29 1 0 0 -15 -4 -32z" fill="#ffffff"/>
<path d="M2436 475 c-10 -8 -23 -16 -28 -17 -10 -4 60 -138 73 -138 13 0 11 7 -7 35 -28 44 4 60 49 25 14 -11 30 -20 36 -20 20 0 11 15 -18 33 -22 13 -27 22 -23 42 9 48 -40 72 -82 40z m59 -29 c0 -10 -10 -25 -22 -33 -21 -14 -23 -13 -35 12 -10 22 -9 28 3 36 23 15 54 6 54 -15z" fill="#ffffff"/>
<path d="M611 369 c-18 -39 -31 -72 -29 -73 15 -8 80 -36 85 -37 4 0 9 3 10 8 2 5 -13 15 -32 22 -19 7 -35 16 -35 20 0 5 11 34 25 65 28 63 29 66 16 66 -4 0 -23 -32 -40 -71z" fill="#ffffff"/>
<path d="M2321 421 c-9 -6 -11 -22 -6 -57 12 -95 16 -114 24 -110 5 3 6 16 4 29 -4 18 2 26 23 36 26 11 30 10 46 -8 9 -12 19 -17 22 -13 3 5 -17 36 -45 68 -29 33 -52 60 -53 61 -1 1 -7 -2 -15 -6z m44 -84 c-21 -11 -35 6 -35 43 l1 25 25 -29 c23 -27 24 -30 9 -39z" fill="#ffffff"/>
<path d="M2178 394 c-34 -18 -44 -54 -29 -105 20 -66 89 -91 132 -48 22 22 21 40 -2 47 -8 3 -11 1 -7 -3 4 -4 3 -16 -3 -27 -8 -14 -19 -18 -42 -16 -26 2 -36 10 -51 42 -28 56 -14 91 37 91 20 0 39 6 42 13 2 6 -2 12 -9 12 -8 0 -20 2 -28 5 -7 2 -25 -2 -40 -11z" fill="#ffffff"/>
<path d="M743 350 c8 -42 7 -58 -6 -86 -14 -28 -14 -34 -3 -34 8 0 19 15 25 33 7 19 28 46 50 63 22 16 35 32 29 35 -6 4 -22 -3 -35 -15 -31 -27 -37 -25 -43 15 -3 18 -10 34 -16 36 -8 3 -9 -10 -1 -47z" fill="#ffffff"/>
<path d="M852 328 c-21 -21 -13 -46 23 -67 39 -22 42 -32 20 -51 -12 -10 -21 -10 -40 -2 -14 7 -25 16 -25 22 0 6 -4 8 -10 5 -18 -11 -11 -24 20 -40 35 -18 65 -12 80 15 14 26 3 48 -32 66 -18 9 -28 22 -26 32 5 24 34 26 57 3 24 -24 37 -15 14 11 -18 20 -63 24 -81 6z" fill="#ffffff"/>
<path d="M960 312 c0 -5 11 -13 24 -16 23 -6 24 -7 12 -48 -26 -85 -27 -98 -13 -98 9 0 18 24 26 69 12 67 14 70 36 61 22 -8 35 -5 35 10 0 4 -17 10 -37 13 -21 3 -48 9 -60 13 -13 3 -23 2 -23 -4z" fill="#ffffff"/>
<path d="M1150 296 c0 -11 9 -16 29 -16 l28 0 -13 -82 c-8 -46 -14 -84 -14 -85 0 -2 6 -3 14 -3 10 0 16 20 20 68 10 97 11 99 46 94 17 -2 30 0 30 6 0 6 -24 13 -52 17 -29 3 -61 9 -70 11 -12 4 -18 0 -18 -10z" fill="#ffffff"/>
<path d="M1963 303 c-13 -2 -23 -5 -23 -6 0 -1 9 -34 19 -74 10 -40 16 -75 12 -79 -3 -4 1 -4 9 -2 16 6 16 8 6 51 -5 22 -3 27 13 27 11 0 30 -13 43 -28 13 -16 30 -26 37 -24 9 3 4 13 -14 32 -24 25 -25 30 -13 49 26 42 -19 68 -89 54z m75 -35 c2 -12 -6 -21 -23 -28 -33 -13 -45 -6 -45 26 0 22 4 25 32 22 22 -2 34 -9 36 -20z" fill="#ffffff"/>
<path d="M1896 238 c13 -91 12 -93 -23 -96 -34 -3 -32 -6 -49 91 -4 23 -12 37 -21 37 -8 0 -12 -4 -8 -9 3 -5 10 -33 15 -62 6 -28 15 -58 21 -66 16 -19 63 -16 82 5 14 15 15 27 5 85 -13 79 -34 93 -22 15z" fill="#ffffff"/>
<path d="M1511 258 c7 -13 20 -35 30 -50 12 -16 19 -43 19 -72 0 -34 4 -46 15 -46 12 0 14 8 9 39 -5 32 -1 50 24 95 26 48 28 56 13 56 -12 0 -22 -14 -30 -42 l-13 -42 -19 25 c-10 13 -21 32 -25 42 -3 9 -12 17 -20 17 -12 0 -13 -4 -3 -22z" fill="#ffffff"/>
<path d="M1324 248 c-63 -30 -54 -133 14 -153 27 -8 82 42 82 75 0 25 -27 80 -39 80 -5 0 -15 2 -23 4 -7 3 -23 0 -34 -6z m62 -33 c36 -55 -20 -132 -66 -90 -24 22 -26 62 -4 93 20 29 50 28 70 -3z" fill="#ffffff"/>
<path d="M1670 240 c-27 -27 -27 -89 0 -118 44 -47 110 -13 110 56 0 69 -66 106 -110 62z m80 -19 c14 -26 13 -74 -2 -89 -18 -18 -56 -14 -68 7 -14 26 -13 74 2 89 18 18 56 14 68 -7z" fill="#ffffff"/>
</g>
</svg>